<mxfile host="app.diagrams.net" agent="Mozilla/5.0 (X11; Ubuntu; Linux x86_64; rv:140.0) Gecko/20100101 Firefox/140.0" version="28.0.3">
  <diagram name="Arquitetura" id="some-id">
    <mxGraphModel dx="2011" dy="742" grid="1" gridSize="10" guides="1" tooltips="1" connect="1" arrows="1" fold="1" page="1" pageScale="1" pageWidth="827" pageHeight="1169" math="0" shadow="0">
      <root>
        <mxCell id="0" />
        <mxCell id="1" parent="0" />
        <mxCell id="frontend" value="Frontend" style="shape=html;whiteSpace=wrap;html=1;" parent="1" vertex="1">
          <mxGeometry x="20" y="120" width="140" height="60" as="geometry" />
        </mxCell>
        <mxCell id="gateway" value="API Gateway (Auth + Routing)" style="shape=cylinder;whiteSpace=wrap;html=1;" parent="1" vertex="1">
          <mxGeometry x="200" y="120" width="180" height="60" as="geometry" />
        </mxCell>
        <mxCell id="arrow1" style="endArrow=block;html=1;" parent="1" source="frontend" target="gateway" edge="1">
          <mxGeometry relative="1" as="geometry" />
        </mxCell>
        <mxCell id="uploader" value="video-processor-uploader" style="shape=process;whiteSpace=wrap;html=1;" parent="1" vertex="1">
          <mxGeometry x="410" y="40" width="160" height="60" as="geometry" />
        </mxCell>
        <mxCell id="worker" value="video-processor-worker" style="shape=process;whiteSpace=wrap;html=1;" parent="1" vertex="1">
          <mxGeometry x="414" y="300" width="160" height="60" as="geometry" />
        </mxCell>
        <mxCell id="s3" value="S3 Bucket" style="shape=datastore;whiteSpace=wrap;html=1;" parent="1" vertex="1">
          <mxGeometry x="607" y="135" width="90" height="90" as="geometry" />
        </mxCell>
        <mxCell id="kafka" value="&lt;div&gt;Kafka&amp;nbsp;&lt;/div&gt;&lt;div&gt;(processor.video.file)&lt;/div&gt;" style="shape=cloud;whiteSpace=wrap;html=1;" parent="1" vertex="1">
          <mxGeometry x="414" y="170" width="160" height="84" as="geometry" />
        </mxCell>
        <mxCell id="arrow2" style="endArrow=block;html=1;exitX=0.85;exitY=0.05;exitDx=0;exitDy=0;exitPerimeter=0;entryX=-0.012;entryY=0.383;entryDx=0;entryDy=0;entryPerimeter=0;" parent="1" source="gateway" target="uploader" edge="1">
          <mxGeometry relative="1" as="geometry" />
        </mxCell>
        <mxCell id="arrow3" style="endArrow=block;html=1;" parent="1" source="uploader" target="s3" edge="1">
          <mxGeometry relative="1" as="geometry" />
        </mxCell>
        <mxCell id="arrow4" style="endArrow=block;dashed=1;html=1;entryX=0.481;entryY=0.06;entryDx=0;entryDy=0;entryPerimeter=0;" parent="1" source="uploader" target="kafka" edge="1">
          <mxGeometry relative="1" as="geometry" />
        </mxCell>
        <mxCell id="arrow5" style="endArrow=block;html=1;" parent="1" source="kafka" target="worker" edge="1">
          <mxGeometry relative="1" as="geometry" />
        </mxCell>
        <mxCell id="arrow6" style="endArrow=block;html=1;" parent="1" source="worker" target="s3" edge="1">
          <mxGeometry relative="1" as="geometry" />
        </mxCell>
        <mxCell id="2" value="Polling (consulta periódica por vídeos prontos - habiltada somente quando disparada requisição de processamento)" style="shape=note;whiteSpace=wrap;html=1;" parent="1" vertex="1">
          <mxGeometry x="20" y="220" width="130" height="110" as="geometry" />
        </mxCell>
        <mxCell id="3" style="endArrow=block;dashed=1;html=1;" parent="1" source="2" target="gateway" edge="1">
          <mxGeometry relative="1" as="geometry" />
        </mxCell>
        <mxCell id="k-Dryp57T_0RaOyvKjQZ-3" value="Base de&amp;nbsp;&lt;br&gt;Dados" style="shape=datastore;whiteSpace=wrap;html=1;" parent="1" vertex="1">
          <mxGeometry x="711" y="290" width="100" height="93" as="geometry" />
        </mxCell>
        <mxCell id="k-Dryp57T_0RaOyvKjQZ-4" style="endArrow=block;html=1;entryX=0;entryY=0.5;entryDx=0;entryDy=0;exitX=1;exitY=0.5;exitDx=0;exitDy=0;" parent="1" source="F1xzL5cWTpZnaBGJeJoK-4" target="k-Dryp57T_0RaOyvKjQZ-3" edge="1">
          <mxGeometry relative="1" as="geometry">
            <mxPoint x="700" y="330" as="sourcePoint" />
            <mxPoint x="716" y="200" as="targetPoint" />
          </mxGeometry>
        </mxCell>
        <mxCell id="F1xzL5cWTpZnaBGJeJoK-4" value="redis" style="shape=datastore;whiteSpace=wrap;html=1;" vertex="1" parent="1">
          <mxGeometry x="614" y="307" width="50" height="60" as="geometry" />
        </mxCell>
        <mxCell id="F1xzL5cWTpZnaBGJeJoK-5" style="endArrow=block;html=1;entryX=0;entryY=0.5;entryDx=0;entryDy=0;exitX=1;exitY=0.617;exitDx=0;exitDy=0;exitPerimeter=0;" edge="1" parent="1" source="worker" target="F1xzL5cWTpZnaBGJeJoK-4">
          <mxGeometry relative="1" as="geometry">
            <mxPoint x="720" y="410" as="sourcePoint" />
            <mxPoint x="770" y="410" as="targetPoint" />
            <Array as="points" />
          </mxGeometry>
        </mxCell>
      </root>
    </mxGraphModel>
  </diagram>
</mxfile>
